<svg width="219" height="53" viewBox="0 0 219 53" fill="none" xmlns="http://www.w3.org/2000/svg">
<path d="M76.9355 25.3369C76.9355 24.6126 76.7484 24.0674 76.374 23.7012C76.0078 23.3268 75.3364 22.9403 74.3599 22.5415C72.5776 21.866 71.2959 21.0767 70.5146 20.1733C69.7334 19.2619 69.3428 18.1877 69.3428 16.9507C69.3428 15.4533 69.8717 14.2529 70.9297 13.3496C71.9958 12.4382 73.3467 11.9824 74.9824 11.9824C76.0729 11.9824 77.0454 12.2144 77.8999 12.6782C78.7544 13.134 79.4095 13.7809 79.8652 14.6191C80.3291 15.4574 80.561 16.4095 80.561 17.4756H76.9844C76.9844 16.6455 76.8053 16.0148 76.4473 15.5835C76.0973 15.144 75.5887 14.9243 74.9214 14.9243C74.2948 14.9243 73.8065 15.1115 73.4565 15.4858C73.1066 15.8521 72.9316 16.3485 72.9316 16.9751C72.9316 17.4634 73.127 17.9069 73.5176 18.3057C73.9082 18.6963 74.5999 19.1032 75.5928 19.5264C77.3262 20.153 78.5835 20.922 79.3647 21.8335C80.1541 22.745 80.5488 23.9046 80.5488 25.3125C80.5488 26.8587 80.0565 28.0672 79.0718 28.938C78.0871 29.8088 76.7484 30.2441 75.0557 30.2441C73.9082 30.2441 72.8625 30.0081 71.9185 29.5361C70.9744 29.0641 70.2339 28.3887 69.6968 27.5098C69.1678 26.6309 68.9033 25.5933 68.9033 24.397H72.5044C72.5044 25.4224 72.7038 26.167 73.1025 26.6309C73.5013 27.0947 74.1523 27.3267 75.0557 27.3267C76.3089 27.3267 76.9355 26.6634 76.9355 25.3369ZM88.0928 30.2441C86.3187 30.2441 84.9352 29.7152 83.9424 28.6572C82.9495 27.5993 82.4531 26.0856 82.4531 24.1162V23.0664C82.4531 20.9831 82.9089 19.3758 83.8203 18.2446C84.7318 17.1134 86.0379 16.5479 87.7388 16.5479C89.3989 16.5479 90.6481 17.0809 91.4863 18.147C92.3245 19.2049 92.7518 20.7756 92.7681 22.8589V24.5557H85.8955C85.9443 25.5322 86.16 26.2484 86.5425 26.7041C86.925 27.1517 87.515 27.3755 88.3125 27.3755C89.4681 27.3755 90.4325 26.9808 91.2056 26.1914L92.5605 28.2788C92.1374 28.8647 91.5229 29.3408 90.7173 29.707C89.9116 30.0651 89.0368 30.2441 88.0928 30.2441ZM85.9199 22.1387H89.3745V21.8213C89.3582 21.0319 89.228 20.4338 88.9839 20.0269C88.7397 19.62 88.3166 19.4165 87.7144 19.4165C87.1121 19.4165 86.6727 19.6322 86.396 20.0635C86.1274 20.4948 85.9688 21.1865 85.9199 22.1387ZM101.24 20.1245L100.092 20.0269C99.1483 20.0269 98.5094 20.4419 98.1758 21.272V30H94.709V16.792H97.9683L98.0659 18.2202C98.6112 17.1053 99.3639 16.5479 100.324 16.5479C100.715 16.5479 101.032 16.6007 101.276 16.7065L101.24 20.1245ZM107.575 25.1172L109.248 16.792H112.849L109.223 30H105.927L102.29 16.792H105.903L107.575 25.1172ZM118.098 30H114.631V16.792H118.098V30ZM114.472 13.374C114.472 12.8369 114.643 12.3975 114.985 12.0557C115.327 11.7139 115.782 11.543 116.352 11.543C116.922 11.543 117.377 11.7139 117.719 12.0557C118.061 12.3975 118.232 12.8369 118.232 13.374C118.232 13.903 118.061 14.3424 117.719 14.6924C117.386 15.0423 116.93 15.2173 116.352 15.2173C115.774 15.2173 115.314 15.0423 114.973 14.6924C114.639 14.3424 114.472 13.903 114.472 13.374ZM125.544 27.3755C126.545 27.3755 127.054 26.7244 127.07 25.4224H130.317C130.301 26.8628 129.857 28.0265 128.986 28.9136C128.116 29.8006 126.993 30.2441 125.617 30.2441C123.916 30.2441 122.618 29.7152 121.723 28.6572C120.828 27.5993 120.372 26.0409 120.356 23.9819V22.9321C120.356 20.8569 120.795 19.2741 121.674 18.1836C122.561 17.0931 123.868 16.5479 125.593 16.5479C127.049 16.5479 128.197 16.9995 129.035 17.9028C129.873 18.798 130.301 20.0716 130.317 21.7236H127.07C127.062 20.9831 126.94 20.4134 126.704 20.0146C126.468 19.6159 126.077 19.4165 125.532 19.4165C124.93 19.4165 124.498 19.6322 124.238 20.0635C123.977 20.4867 123.839 21.3127 123.823 22.5415V23.8843C123.823 24.9585 123.876 25.7113 123.981 26.1426C124.087 26.5658 124.262 26.8791 124.506 27.0825C124.75 27.2778 125.096 27.3755 125.544 27.3755ZM137.604 30.2441C135.83 30.2441 134.447 29.7152 133.454 28.6572C132.461 27.5993 131.965 26.0856 131.965 24.1162V23.0664C131.965 20.9831 132.421 19.3758 133.332 18.2446C134.243 17.1134 135.55 16.5479 137.25 16.5479C138.911 16.5479 140.16 17.0809 140.998 18.147C141.836 19.2049 142.264 20.7756 142.28 22.8589V24.5557H135.407C135.456 25.5322 135.672 26.2484 136.054 26.7041C136.437 27.1517 137.027 27.3755 137.824 27.3755C138.98 27.3755 139.944 26.9808 140.717 26.1914L142.072 28.2788C141.649 28.8647 141.035 29.3408 140.229 29.707C139.423 30.0651 138.549 30.2441 137.604 30.2441ZM135.432 22.1387H138.886V21.8213C138.87 21.0319 138.74 20.4338 138.496 20.0269C138.251 19.62 137.828 19.4165 137.226 19.4165C136.624 19.4165 136.184 19.6322 135.908 20.0635C135.639 20.4948 135.48 21.1865 135.432 22.1387ZM150.166 30V12.2266H154.865C156.94 12.2266 158.592 12.8857 159.821 14.2041C161.058 15.5225 161.689 17.3291 161.713 19.624V22.5049C161.713 24.8405 161.095 26.6756 159.858 28.0103C158.629 29.3368 156.932 30 154.768 30H150.166ZM153.754 15.2173V27.0215H154.829C156.025 27.0215 156.867 26.7082 157.355 26.0815C157.844 25.4468 158.1 24.3563 158.125 22.8101V19.7217C158.125 18.0615 157.893 16.9059 157.429 16.2549C156.965 15.5957 156.175 15.2498 155.061 15.2173H153.754ZM169.465 30.2441C167.691 30.2441 166.307 29.7152 165.314 28.6572C164.322 27.5993 163.825 26.0856 163.825 24.1162V23.0664C163.825 20.9831 164.281 19.3758 165.192 18.2446C166.104 17.1134 167.41 16.5479 169.111 16.5479C170.771 16.5479 172.02 17.0809 172.858 18.147C173.697 19.2049 174.124 20.7756 174.14 22.8589V24.5557H167.268C167.316 25.5322 167.532 26.2484 167.915 26.7041C168.297 27.1517 168.887 27.3755 169.685 27.3755C170.84 27.3755 171.805 26.9808 172.578 26.1914L173.933 28.2788C173.509 28.8647 172.895 29.3408 172.089 29.707C171.284 30.0651 170.409 30.2441 169.465 30.2441ZM167.292 22.1387H170.747V21.8213C170.73 21.0319 170.6 20.4338 170.356 20.0269C170.112 19.62 169.689 19.4165 169.086 19.4165C168.484 19.4165 168.045 19.6322 167.768 20.0635C167.5 20.4948 167.341 21.1865 167.292 22.1387ZM180.256 25.1172L181.928 16.792H185.529L181.904 30H178.608L174.97 16.792H178.583L180.256 25.1172ZM190.778 30H187.312V16.792H190.778V30ZM187.153 13.374C187.153 12.8369 187.324 12.3975 187.666 12.0557C188.007 11.7139 188.463 11.543 189.033 11.543C189.602 11.543 190.058 11.7139 190.4 12.0557C190.742 12.3975 190.913 12.8369 190.913 13.374C190.913 13.903 190.742 14.3424 190.4 14.6924C190.066 15.0423 189.611 15.2173 189.033 15.2173C188.455 15.2173 187.995 15.0423 187.653 14.6924C187.32 14.3424 187.153 13.903 187.153 13.374ZM198.225 27.3755C199.226 27.3755 199.734 26.7244 199.75 25.4224H202.998C202.981 26.8628 202.538 28.0265 201.667 28.9136C200.796 29.8006 199.673 30.2441 198.298 30.2441C196.597 30.2441 195.299 29.7152 194.404 28.6572C193.509 27.5993 193.053 26.0409 193.037 23.9819V22.9321C193.037 20.8569 193.476 19.2741 194.355 18.1836C195.242 17.0931 196.548 16.5479 198.273 16.5479C199.73 16.5479 200.878 16.9995 201.716 17.9028C202.554 18.798 202.981 20.0716 202.998 21.7236H199.75C199.742 20.9831 199.62 20.4134 199.384 20.0146C199.148 19.6159 198.758 19.4165 198.212 19.4165C197.61 19.4165 197.179 19.6322 196.918 20.0635C196.658 20.4867 196.52 21.3127 196.503 22.5415V23.8843C196.503 24.9585 196.556 25.7113 196.662 26.1426C196.768 26.5658 196.943 26.8791 197.187 27.0825C197.431 27.2778 197.777 27.3755 198.225 27.3755ZM210.285 30.2441C208.511 30.2441 207.128 29.7152 206.135 28.6572C205.142 27.5993 204.646 26.0856 204.646 24.1162V23.0664C204.646 20.9831 205.101 19.3758 206.013 18.2446C206.924 17.1134 208.23 16.5479 209.931 16.5479C211.591 16.5479 212.84 17.0809 213.679 18.147C214.517 19.2049 214.944 20.7756 214.96 22.8589V24.5557H208.088C208.137 25.5322 208.352 26.2484 208.735 26.7041C209.117 27.1517 209.707 27.3755 210.505 27.3755C211.66 27.3755 212.625 26.9808 213.398 26.1914L214.753 28.2788C214.33 28.8647 213.715 29.3408 212.91 29.707C212.104 30.0651 211.229 30.2441 210.285 30.2441ZM208.112 22.1387H211.567V21.8213C211.551 21.0319 211.42 20.4338 211.176 20.0269C210.932 19.62 210.509 19.4165 209.907 19.4165C209.305 19.4165 208.865 19.6322 208.588 20.0635C208.32 20.4948 208.161 21.1865 208.112 22.1387Z" fill="#203C42"/>
<path d="M70.9473 45.9609L72.2363 41.6602H73.7539L71.2344 48.9609C70.8477 50.0273 70.1914 50.5605 69.2656 50.5605C69.0586 50.5605 68.8301 50.5254 68.5801 50.4551V49.3535L68.8496 49.3711C69.209 49.3711 69.4785 49.3047 69.6582 49.1719C69.8418 49.043 69.9863 48.8242 70.0918 48.5156L70.2969 47.9707L68.0703 41.6602H69.6055L70.9473 45.9609ZM78.3418 46.248L80.2168 41.6602H81.998V48H80.5742V43.8047L78.8281 48H77.8613L76.1094 43.7812V48H74.6855V41.6602H76.4785L78.3418 46.248ZM88.9707 48H87.5469V45.4395H85.0801V48H83.6562V41.6602H85.0801V44.3027H87.5469V41.6602H88.9707V48ZM92.0234 43.6758H93.418C93.9375 43.6758 94.3906 43.7656 94.7773 43.9453C95.1641 44.125 95.457 44.377 95.6562 44.7012C95.8594 45.0254 95.9609 45.4023 95.9609 45.832C95.9609 46.4844 95.7305 47.0078 95.2695 47.4023C94.8086 47.7969 94.1953 47.9961 93.4297 48H90.5996V41.6602H92.0234V43.6758ZM98.4395 48H97.0156V41.6602H98.4395V48ZM92.0234 44.8184V46.8633H93.4121C93.7598 46.8633 94.0332 46.7773 94.2324 46.6055C94.4355 46.4297 94.5371 46.1816 94.5371 45.8613C94.5371 45.541 94.4375 45.2891 94.2383 45.1055C94.043 44.918 93.7773 44.8223 93.4414 44.8184H92.0234ZM102.939 48.1172C102.037 48.1172 101.305 47.834 100.742 47.2676C100.184 46.6973 99.9043 45.9395 99.9043 44.9941V44.8184C99.9043 44.1855 100.025 43.6211 100.268 43.125C100.514 42.625 100.857 42.2363 101.299 41.959C101.74 41.6816 102.232 41.543 102.775 41.543C103.639 41.543 104.305 41.8184 104.773 42.3691C105.246 42.9199 105.482 43.6992 105.482 44.707V45.2812H101.34C101.383 45.8047 101.557 46.2188 101.861 46.5234C102.17 46.8281 102.557 46.9805 103.021 46.9805C103.674 46.9805 104.205 46.7168 104.615 46.1895L105.383 46.9219C105.129 47.3008 104.789 47.5957 104.363 47.8066C103.941 48.0137 103.467 48.1172 102.939 48.1172ZM102.77 42.6855C102.379 42.6855 102.062 42.8223 101.82 43.0957C101.582 43.3691 101.43 43.75 101.363 44.2383H104.076V44.1328C104.045 43.6562 103.918 43.2969 103.695 43.0547C103.473 42.8086 103.164 42.6855 102.77 42.6855ZM114.57 42.791H112.514V48H111.09V42.791H109.057V41.6602H114.57V42.791ZM117.939 48.1172C117.037 48.1172 116.305 47.834 115.742 47.2676C115.184 46.6973 114.904 45.9395 114.904 44.9941V44.8184C114.904 44.1855 115.025 43.6211 115.268 43.125C115.514 42.625 115.857 42.2363 116.299 41.959C116.74 41.6816 117.232 41.543 117.775 41.543C118.639 41.543 119.305 41.8184 119.773 42.3691C120.246 42.9199 120.482 43.6992 120.482 44.707V45.2812H116.34C116.383 45.8047 116.557 46.2188 116.861 46.5234C117.17 46.8281 117.557 46.9805 118.021 46.9805C118.674 46.9805 119.205 46.7168 119.615 46.1895L120.383 46.9219C120.129 47.3008 119.789 47.5957 119.363 47.8066C118.941 48.0137 118.467 48.1172 117.939 48.1172ZM117.77 42.6855C117.379 42.6855 117.062 42.8223 116.82 43.0957C116.582 43.3691 116.43 43.75 116.363 44.2383H119.076V44.1328C119.045 43.6562 118.918 43.2969 118.695 43.0547C118.473 42.8086 118.164 42.6855 117.77 42.6855ZM123.869 43.7461L125.076 41.6602H126.658L124.719 44.7832L126.723 48H125.152L123.887 45.832L122.627 48H121.045L123.049 44.7832L121.115 41.6602H122.686L123.869 43.7461ZM132.998 48H131.574V45.4395H129.107V48H127.684V41.6602H129.107V44.3027H131.574V41.6602H132.998V48ZM134.252 44.7715C134.252 44.1504 134.375 43.5918 134.621 43.0957C134.867 42.5957 135.213 42.2129 135.658 41.9473C136.104 41.6777 136.615 41.543 137.193 41.543C138.049 41.543 138.742 41.8184 139.273 42.3691C139.809 42.9199 140.098 43.6504 140.141 44.5605L140.146 44.8945C140.146 45.5195 140.025 46.0781 139.783 46.5703C139.545 47.0625 139.201 47.4434 138.752 47.7129C138.307 47.9824 137.791 48.1172 137.205 48.1172C136.311 48.1172 135.594 47.8203 135.055 47.2266C134.52 46.6289 134.252 45.834 134.252 44.8418V44.7715ZM135.676 44.8945C135.676 45.5469 135.811 46.0586 136.08 46.4297C136.35 46.7969 136.725 46.9805 137.205 46.9805C137.686 46.9805 138.059 46.793 138.324 46.418C138.594 46.043 138.729 45.4941 138.729 44.7715C138.729 44.1309 138.59 43.623 138.312 43.248C138.039 42.873 137.666 42.6855 137.193 42.6855C136.729 42.6855 136.359 42.8711 136.086 43.2422C135.812 43.6094 135.676 44.1602 135.676 44.8945ZM146.645 41.6602V48H145.221V42.8086H143.428L143.311 45.0176C143.236 46.0801 143.031 46.8438 142.695 47.3086C142.363 47.7695 141.854 48 141.166 48H140.727L140.721 46.8164L141.014 46.7871C141.326 46.7441 141.553 46.5547 141.693 46.2188C141.838 45.8789 141.93 45.2617 141.969 44.3672L142.086 41.6602H146.645ZM147.893 44.7715C147.893 44.1504 148.016 43.5918 148.262 43.0957C148.508 42.5957 148.854 42.2129 149.299 41.9473C149.744 41.6777 150.256 41.543 150.834 41.543C151.689 41.543 152.383 41.8184 152.914 42.3691C153.449 42.9199 153.738 43.6504 153.781 44.5605L153.787 44.8945C153.787 45.5195 153.666 46.0781 153.424 46.5703C153.186 47.0625 152.842 47.4434 152.393 47.7129C151.947 47.9824 151.432 48.1172 150.846 48.1172C149.951 48.1172 149.234 47.8203 148.695 47.2266C148.16 46.6289 147.893 45.834 147.893 44.8418V44.7715ZM149.316 44.8945C149.316 45.5469 149.451 46.0586 149.721 46.4297C149.99 46.7969 150.365 46.9805 150.846 46.9805C151.326 46.9805 151.699 46.793 151.965 46.418C152.234 46.043 152.369 45.4941 152.369 44.7715C152.369 44.1309 152.23 43.623 151.953 43.248C151.68 42.873 151.307 42.6855 150.834 42.6855C150.369 42.6855 150 42.8711 149.727 43.2422C149.453 43.6094 149.316 44.1602 149.316 44.8945ZM159.213 42.8086H156.459V48H155.041V41.6602H159.213V42.8086ZM163.977 41.6602H165.395V48H163.977V43.7695L161.492 48H160.074V41.6602H161.492V45.8906L163.977 41.6602ZM170.867 41.6602H172.285V48H170.867V43.7695L168.383 48H166.965V41.6602H168.383V45.8906L170.867 41.6602Z" fill="#788891"/>
<path d="M32.0668 14.8665C33.1952 14.8665 34.1485 15.5936 34.5073 16.5998H43.4929C43.8517 15.5936 44.805 14.8665 45.9334 14.8665C47.3669 14.8665 48.5334 16.033 48.5334 17.4664C48.5334 18.8999 47.3669 20.0664 45.9334 20.0664C44.805 20.0664 43.8517 19.3392 43.4929 18.3331H34.5064C34.1476 19.3392 33.1943 20.0664 32.0659 20.0664C30.6324 20.0664 29.4659 18.8999 29.4659 17.4664C29.4659 16.033 30.6333 14.8665 32.0668 14.8665ZM45.9334 18.3331C46.411 18.3331 46.8001 17.9448 46.8001 17.4664C46.8001 16.988 46.411 16.5998 45.9334 16.5998C45.4559 16.5998 45.0668 16.988 45.0668 17.4664C45.0668 17.9448 45.4559 18.3331 45.9334 18.3331ZM32.0668 18.3331C32.5443 18.3331 32.9334 17.9448 32.9334 17.4664C32.9334 16.988 32.5443 16.5998 32.0668 16.5998C31.5892 16.5998 31.2001 16.988 31.2001 17.4664C31.2001 17.9448 31.5892 18.3331 32.0668 18.3331Z" fill="#00B2FF"/>
<path d="M25.1333 20.2259V14.8665C25.1333 14.636 25.2243 14.4158 25.3872 14.2538L28.8539 10.7872C29.0159 10.6242 29.2369 10.5332 29.4666 10.5332H32.2261C32.5849 9.52705 33.5382 8.79993 34.6666 8.79993C36.1001 8.79993 37.2666 9.96644 37.2666 11.3999C37.2666 12.8333 36.1001 13.9998 34.6666 13.9998C33.5382 13.9998 32.5849 13.2727 32.2261 12.2665H29.8254L26.8666 15.2253V20.2259C27.8728 20.5847 28.5999 21.538 28.5999 22.6664C28.5999 24.0998 27.4334 25.2663 25.9999 25.2663C24.5665 25.2663 23.3999 24.0998 23.3999 22.6664C23.3999 21.538 24.1271 20.5847 25.1333 20.2259ZM34.6666 12.2665C35.1441 12.2665 35.5333 11.8783 35.5333 11.3999C35.5333 10.9215 35.1441 10.5332 34.6666 10.5332C34.1891 10.5332 33.7999 10.9215 33.7999 11.3999C33.7999 11.8783 34.1891 12.2665 34.6666 12.2665ZM25.9999 23.533C26.4775 23.533 26.8666 23.1448 26.8666 22.6664C26.8666 22.188 26.4775 21.7997 25.9999 21.7997C25.5224 21.7997 25.1333 22.188 25.1333 22.6664C25.1333 23.1448 25.5224 23.533 25.9999 23.533Z" fill="#00B2FF"/>
<path d="M9.53333 23.533C9.93373 23.533 10.3081 23.6309 10.647 23.7938L12.1333 22.3075V13.9998C12.1333 13.7693 12.2243 13.5491 12.3873 13.3871L21.0609 4.7136C20.8979 4.37474 20.8 4.00035 20.8 3.59996C20.8 2.16651 21.9665 1 23.4 1C24.8335 1 26 2.16651 26 3.59996C26 5.0334 24.8335 6.19991 23.4 6.19991C22.9996 6.19991 22.6252 6.10198 22.2863 5.93905L13.8667 14.3586V22.6663C13.8667 22.8968 13.7757 23.117 13.6127 23.279L11.8725 25.0193C12.0354 25.3581 12.1333 25.7325 12.1333 26.1329C12.1333 27.5664 10.9668 28.7329 9.53333 28.7329C8.09986 28.7329 6.93333 27.5664 6.93333 26.1329C6.93333 24.6995 8.09986 23.533 9.53333 23.533ZM23.4 4.46661C23.8775 4.46661 24.2667 4.07835 24.2667 3.59996C24.2667 3.12156 23.8775 2.7333 23.4 2.7333C22.9225 2.7333 22.5333 3.12156 22.5333 3.59996C22.5333 4.07835 22.9225 4.46661 23.4 4.46661ZM9.53333 26.9996C10.0109 26.9996 10.4 26.6113 10.4 26.1329C10.4 25.6545 10.0109 25.2663 9.53333 25.2663C9.0558 25.2663 8.66667 25.6545 8.66667 26.1329C8.66667 26.6113 9.0558 26.9996 9.53333 26.9996Z" fill="#00B2FF"/>
<path d="M1.73328 13.2926V9.66652C1.73328 9.43599 1.82428 9.21586 1.98722 9.0538L8.05388 2.98723C8.21595 2.8243 8.43695 2.7333 8.66662 2.7333H13.1594C13.5182 1.72712 14.4716 1 15.6 1C17.0334 1 18.2 2.16651 18.2 3.59996C18.2 5.0334 17.0334 6.19991 15.6 6.19991C14.4716 6.19991 13.5182 5.47279 13.1594 4.46661H9.02542L3.46662 10.0253V13.2926C4.47282 13.6514 5.19995 14.6047 5.19995 15.7331C5.19995 17.1665 4.03342 18.333 2.59995 18.333C1.16648 18.333 -4.95911e-05 17.1665 -4.95911e-05 15.7331C-4.95911e-05 14.6047 0.727085 13.6514 1.73328 13.2926ZM15.6 4.46661C16.0775 4.46661 16.4666 4.07835 16.4666 3.59996C16.4666 3.12156 16.0775 2.7333 15.6 2.7333C15.1224 2.7333 14.7333 3.12156 14.7333 3.59996C14.7333 4.07835 15.1224 4.46661 15.6 4.46661ZM2.59995 16.5997C3.07748 16.5997 3.46662 16.2115 3.46662 15.7331C3.46662 15.2547 3.07748 14.8664 2.59995 14.8664C2.12242 14.8664 1.73328 15.2547 1.73328 15.7331C1.73328 16.2115 2.12242 16.5997 2.59995 16.5997Z" fill="#00B2FF"/>
<path d="M13.8658 47.9595V35.5066C12.8604 35.1478 12.1333 34.1945 12.1333 33.0661C12.1333 31.6327 13.2998 30.4661 14.7333 30.4661C15.8617 30.4661 16.815 31.1933 17.1738 32.1995H26.1594C26.5182 31.1933 27.4716 30.4661 28.6 30.4661C29.7284 30.4661 30.6817 31.1933 31.0405 32.1995H36.0412L39.2608 28.9798C39.0979 28.641 39 28.2666 39 27.8662C39 26.4327 40.1665 25.2662 41.6 25.2662C43.0334 25.2662 44.2 26.4327 44.2 27.8662C44.2 29.2996 43.0334 30.4661 41.6 30.4661C41.1996 30.4661 40.8252 30.3682 40.4863 30.2053L37.0127 33.6788C36.8506 33.8418 36.6296 33.9328 36.4 33.9328H31.0405C30.6817 34.9389 29.7284 35.6661 28.6 35.6661C27.4716 35.6661 26.5182 34.9389 26.1594 33.9328H17.173C16.9112 34.6668 16.3332 35.2449 15.5991 35.5066V47.9595C16.6053 48.3183 17.3324 49.2716 17.3324 50.4C17.3324 51.8335 16.1659 53 14.7324 53C13.299 53 12.1324 51.8335 12.1324 50.4C12.1324 49.2716 12.8596 48.3183 13.8658 47.9595ZM41.6 28.7328C42.0775 28.7328 42.4666 28.3446 42.4666 27.8662C42.4666 27.3878 42.0775 26.9995 41.6 26.9995C41.1224 26.9995 40.7333 27.3878 40.7333 27.8662C40.7333 28.3446 41.1224 28.7328 41.6 28.7328ZM28.6 33.9328C29.0775 33.9328 29.4666 33.5445 29.4666 33.0661C29.4666 32.5877 29.0775 32.1995 28.6 32.1995C28.1224 32.1995 27.7333 32.5877 27.7333 33.0661C27.7333 33.5445 28.1224 33.9328 28.6 33.9328ZM14.7333 51.2658C15.2108 51.2658 15.6 50.8775 15.6 50.3991C15.6 49.9208 15.2108 49.5325 14.7333 49.5325C14.2558 49.5325 13.8666 49.9208 13.8666 50.3991C13.8666 50.8775 14.2558 51.2658 14.7333 51.2658ZM14.7333 33.9328C15.2108 33.9328 15.6 33.5445 15.6 33.0661C15.6 32.5877 15.2108 32.1995 14.7333 32.1995C14.2558 32.1995 13.8666 32.5877 13.8666 33.0661C13.8666 33.5445 14.2558 33.9328 14.7333 33.9328Z" fill="#00B2FF"/>
<path d="M18.2 18.4925V15.7331C18.2 15.5026 18.291 15.2824 18.4539 15.1204L28.8609 4.7136C28.6979 4.37474 28.6 4.00035 28.6 3.59996C28.6 2.16651 29.7665 1 31.2 1C32.3284 1 33.2817 1.72712 33.6405 2.7333H37.2667C37.7451 2.7333 38.1333 3.1207 38.1333 3.59996V5.84112L41.353 9.06073C41.6919 8.8978 42.0663 8.79987 42.4667 8.79987C43.9001 8.79987 45.0667 9.96638 45.0667 11.3998C45.0667 12.8333 43.9001 13.9998 42.4667 13.9998C41.0332 13.9998 39.8667 12.8333 39.8667 11.3998C39.8667 10.9994 39.9646 10.625 40.1275 10.2862L36.6539 6.81264C36.491 6.65057 36.4 6.43044 36.4 6.19991V4.46661H33.6405C33.2817 5.47279 32.3284 6.19991 31.2 6.19991C30.7996 6.19991 30.4252 6.10198 30.0863 5.93905L19.9333 16.0919V18.4925C20.9395 18.8513 21.6667 19.8046 21.6667 20.933C21.6667 22.3664 20.5001 23.533 19.0667 23.533C17.6332 23.533 16.4667 22.3664 16.4667 20.933C16.4667 19.8046 17.1938 18.8513 18.2 18.4925ZM42.4667 12.2665C42.9442 12.2665 43.3333 11.8782 43.3333 11.3998C43.3333 10.9214 42.9442 10.5332 42.4667 10.5332C41.9891 10.5332 41.6 10.9214 41.6 11.3998C41.6 11.8782 41.9891 12.2665 42.4667 12.2665ZM31.2 4.46661C31.6775 4.46661 32.0667 4.07835 32.0667 3.59996C32.0667 3.12156 31.6775 2.7333 31.2 2.7333C30.7225 2.7333 30.3333 3.12156 30.3333 3.59996C30.3333 4.07835 30.7225 4.46661 31.2 4.46661ZM19.0667 21.7997C19.5442 21.7997 19.9333 21.4114 19.9333 20.933C19.9333 20.4546 19.5442 20.0663 19.0667 20.0663C18.5891 20.0663 18.2 20.4546 18.2 20.933C18.2 21.4114 18.5891 21.7997 19.0667 21.7997Z" fill="#00B2FF"/>
<path d="M20.8 25.2663C21.9284 25.2663 22.8817 25.9934 23.2405 26.9996H33.4412L38.3873 22.0536C38.5493 21.8906 38.7703 21.7997 39 21.7997H48.1745L50.2667 19.7076V12.6253L43.5803 5.93905C43.2415 6.10198 42.8671 6.19991 42.4667 6.19991C41.0332 6.19991 39.8667 5.0334 39.8667 3.59996C39.8667 2.16651 41.0332 1 42.4667 1C43.9001 1 45.0667 2.16651 45.0667 3.59996C45.0667 4.00035 44.9687 4.37474 44.8058 4.7136L51.7461 11.6538C51.909 11.8158 52 12.0359 52 12.2665V20.0663C52 20.2969 51.909 20.517 51.7461 20.6791L49.1461 23.279C48.984 23.442 48.763 23.533 48.5333 23.533H39.3588L34.4127 28.4789C34.2507 28.6419 34.0297 28.7329 33.8 28.7329H23.2405C22.8817 29.7391 21.9284 30.4662 20.8 30.4662C19.3665 30.4662 18.2 29.2997 18.2 27.8662C18.2 26.4328 19.3665 25.2663 20.8 25.2663ZM42.4667 2.7333C41.9891 2.7333 41.6 3.12156 41.6 3.59996C41.6 4.07835 41.9891 4.46661 42.4667 4.46661C42.9442 4.46661 43.3333 4.07835 43.3333 3.59996C43.3333 3.12156 42.9442 2.7333 42.4667 2.7333ZM20.8 28.7329C21.2775 28.7329 21.6667 28.3446 21.6667 27.8662C21.6667 27.3878 21.2775 26.9996 20.8 26.9996C20.3225 26.9996 19.9333 27.3878 19.9333 27.8662C19.9333 28.3446 20.3225 28.7329 20.8 28.7329Z" fill="#00B2FF"/>
<path d="M2.59997 21.7997C3.00037 21.7997 3.37477 21.8976 3.71363 22.0606L6.9333 18.841V13.8404C5.9271 13.4816 5.19997 12.5283 5.19997 11.3999C5.19997 9.96644 6.3665 8.79993 7.79997 8.79993C9.23343 8.79993 10.4 9.96644 10.4 11.3999C10.4 12.5283 9.67283 13.4816 8.66663 13.8404V19.1998C8.66663 19.4303 8.57563 19.6504 8.4127 19.8125L4.9391 23.286C5.10204 23.6249 5.19997 23.9993 5.19997 24.3997C5.19997 25.528 4.47283 26.4814 3.46663 26.8402V27.5075L10.146 34.1868C10.309 34.3488 10.4 34.569 10.4 34.7995V35.8256C11.4062 36.1844 12.1333 37.1377 12.1333 38.2661C12.1333 39.3945 11.4062 40.3478 10.4 40.7066V42.7597C11.4062 43.1185 12.1333 44.0718 12.1333 45.2002C12.1333 46.6336 10.9668 47.8001 9.5333 47.8001C8.09983 47.8001 6.9333 46.6336 6.9333 45.2002C6.9333 44.0718 7.66043 43.1185 8.66663 42.7597V40.7066C7.66043 40.3478 6.9333 39.3945 6.9333 38.2661C6.9333 37.1377 7.66043 36.1844 8.66663 35.8256V35.1583L1.98723 28.479C1.8243 28.3169 1.7333 28.0968 1.7333 27.8663V26.8402C0.7271 26.4814 -3.24249e-05 25.528 -3.24249e-05 24.3997C-3.24249e-05 22.9662 1.1665 21.7997 2.59997 21.7997ZM7.79997 12.2665C8.2775 12.2665 8.66663 11.8783 8.66663 11.3999C8.66663 10.9215 8.2775 10.5332 7.79997 10.5332C7.32243 10.5332 6.9333 10.9215 6.9333 11.3999C6.9333 11.8783 7.32243 12.2665 7.79997 12.2665ZM9.5333 46.066C10.0108 46.066 10.4 45.6777 10.4 45.1993C10.4 44.7209 10.0108 44.3327 9.5333 44.3327C9.05577 44.3327 8.66663 44.7209 8.66663 45.1993C8.66663 45.6777 9.05577 46.066 9.5333 46.066ZM9.5333 39.1328C10.0108 39.1328 10.4 38.7445 10.4 38.2661C10.4 37.7877 10.0108 37.3995 9.5333 37.3995C9.05577 37.3995 8.66663 37.7877 8.66663 38.2661C8.66663 38.7445 9.05577 39.1328 9.5333 39.1328ZM2.59997 25.2663C3.0775 25.2663 3.46663 24.8781 3.46663 24.3997C3.46663 23.9213 3.0775 23.533 2.59997 23.533C2.12243 23.533 1.7333 23.9213 1.7333 24.3997C1.7333 24.8781 2.12243 25.2663 2.59997 25.2663Z" fill="#00B2FF"/>
</svg>
